# xmcd
#
# Track frame offsets: 
#        150
#        10156
#        22764
#        33593
#        47352
#        60251
#        70697
#        83141
#        96530
#        107471
#        119098
#        130559
#
# Disc length: 1882 seconds
#
# Revision: 3
# Processed by: cddbd v1.5.2PL0 Copyright (c) Steve Scherf et al.
# Submitted via: ExactAudioCopyFreeDBPlugin 1.0
#
DISCID=8b07580c
DTITLE=Willie Nelson - ...And Then I Wrote
DYEAR=2013
DGENRE=Country
TTITLE0=Touch Me
TTITLE1=Wake Me When It's Over
TTITLE2=Hello Walls
TTITLE3=Funny How Time Slips Away
TTITLE4=Crazy
TTITLE5=The Part Where I Cry
TTITLE6=Mr. Record Man
TTITLE7=Three Days
TTITLE8=One Step Beyond
TTITLE9=Undo The Right
TTITLE10=Darkness On The Face Of The Earth
TTITLE11=Where My House Lives
EXTD=
EXTT0=
EXTT1=
EXTT2=
EXTT3=
EXTT4=
EXTT5=
EXTT6=
EXTT7=
EXTT8=
EXTT9=
EXTT10=
EXTT11=
PLAYORDER=
